<svg width="28" height="28" viewBox="0 0 28 28" fill="none" xmlns="http://www.w3.org/2000/svg">
<path d="M16.0464 15.494L20.7841 10.5353C21.1136 10.1936 21.1136 9.63961 20.7841 9.2979C20.4546 8.9562 19.9204 8.9562 19.5909 9.2979L14.8532 14.2565L16.0464 15.494Z" fill="black"/>
<path d="M16.0464 15.494L20.7841 10.5353C21.1136 10.1936 21.1136 9.63961 20.7841 9.2979C20.4546 8.9562 19.9204 8.9562 19.5909 9.2979L14.8532 14.2565L16.0464 15.494Z" fill="url(#paint0_linear_12_307)"/>
<path d="M14.3638 17.1634L13.1706 15.926L12.3125 16.8458L8.40912 12.7979C8.07962 12.4562 7.54538 12.4562 7.21588 12.7979C6.88638 13.1397 6.88638 13.6936 7.21588 14.0353L11.7159 18.702C12.0454 19.0437 12.5796 19.0437 12.9091 18.702L14.3638 17.1634Z" fill="black"/>
<path d="M14.3638 17.1634L13.1706 15.926L12.3125 16.8458L8.40912 12.7979C8.07962 12.4562 7.54538 12.4562 7.21588 12.7979C6.88638 13.1397 6.88638 13.6936 7.21588 14.0353L11.7159 18.702C12.0454 19.0437 12.5796 19.0437 12.9091 18.702L14.3638 17.1634Z" fill="url(#paint1_linear_12_307)"/>
<path fill-rule="evenodd" clip-rule="evenodd" d="M25.3153 9.25628C25.6448 9.59798 25.6448 10.152 25.3153 10.4937L17.4403 18.6603C17.1108 19.0021 16.5767 19.0021 16.2471 18.6603L11.7471 13.9937C11.4176 13.652 11.4176 13.098 11.7471 12.7563C12.0766 12.4146 12.6109 12.4146 12.9404 12.7563L16.8437 16.8042L24.1222 9.25628C24.4517 8.91457 24.9858 8.91457 25.3153 9.25628Z" fill="black"/>
<path fill-rule="evenodd" clip-rule="evenodd" d="M25.3153 9.25628C25.6448 9.59798 25.6448 10.152 25.3153 10.4937L17.4403 18.6603C17.1108 19.0021 16.5767 19.0021 16.2471 18.6603L11.7471 13.9937C11.4176 13.652 11.4176 13.098 11.7471 12.7563C12.0766 12.4146 12.6109 12.4146 12.9404 12.7563L16.8437 16.8042L24.1222 9.25628C24.4517 8.91457 24.9858 8.91457 25.3153 9.25628Z" fill="url(#paint2_linear_12_307)"/>
<defs>
<linearGradient id="paint0_linear_12_307" x1="10.5616" y1="8.42184" x2="17.1729" y2="16.2934" gradientUnits="userSpaceOnUse">
<stop stop-color="#2B6AE9"/>
<stop offset="1" stop-color="#A123CD"/>
</linearGradient>
<linearGradient id="paint1_linear_12_307" x1="10.5616" y1="8.42184" x2="17.1729" y2="16.2934" gradientUnits="userSpaceOnUse">
<stop stop-color="#2B6AE9"/>
<stop offset="1" stop-color="#A123CD"/>
</linearGradient>
<linearGradient id="paint2_linear_12_307" x1="15.0929" y1="8.38021" x2="21.7041" y2="16.2517" gradientUnits="userSpaceOnUse">
<stop stop-color="#2B6AE9"/>
<stop offset="1" stop-color="#A123CD"/>
</linearGradient>
</defs>
</svg>
